PathFileType	4	(X/Y/Z)	D:\TRACE\spot_10-12-23\spot_arm_motion_2_2-v60.trc
DataRate	CameraRate	NumFrames	NumMarkers	Units	OrigDataRate	OrigDataStartFrame	OrigNumFrames
100.00	100.00	      14	9	mm	100.00	4376	      7000
Frame#	Time	front left toe			Front right toe			aft left toe			aft right toe			Arm			FL body			FR body			AL Body			AR Body			
		X1	Y1	Z1	X2	Y2	Z2	X3	Y3	Z3	X4	Y4	Z4	X5	Y5	Z5	X6	Y6	Z6	X7	Y7	Z7	X8	Y8	Z8	X9	Y9	Z9	

4376	43.750	-152.83839	21.58198	-82.60583	326.41098	27.04065	16.74376	-267.62805	15.55510	495.03265	202.50867	12.18565	594.20551	14.93338	721.85406	-769.37347	11.46107	528.56799	-117.37477	160.83768	531.88324	-88.98863	-157.60782	583.43524	749.20313	-10.54492	580.70618	779.55908	
4377	43.760	-151.87897	21.67492	-82.01623	326.18143	28.31300	17.77192	-266.07751	14.10240	495.52664	203.46013	10.98292	594.62799	16.60941	721.69202	-769.05011	13.27301	528.82654	-116.75385	162.31305	532.08527	-88.49634	-156.75282	582.51855	750.23627	-9.28598	579.11371	779.67340	
4378	43.770	-150.89040	21.94865	-81.75055	328.34662	26.05120	17.78327	-265.63254	13.15595	495.62213	203.91536	8.59150	594.19525	18.28513	721.76984	-768.85706	14.66857	529.16748	-116.36533	164.06700	532.41400	-87.86973	-155.56139	581.20508	750.01599	-8.36745	578.04535	780.58539	
4379	43.780	-150.04237	22.44089	-81.63212	329.77579	27.40317	19.90222	-264.43832	11.87919	495.86438	205.00824	7.63864	594.64246	19.58743	721.73749	-768.50232	16.19247	529.33014	-115.90250	163.19138	533.89587	-88.59116	-154.58337	580.07623	750.97540	-7.63549	576.84003	780.92560	
4380	43.790	-148.89856	22.65200	-81.23000	330.24173	26.24517	18.62044	-264.01385	11.02822	496.24985	205.96042	6.57489	595.20300	20.59468	721.62219	-768.33759	17.76842	529.80542	-115.56581	167.47829	532.61841	-86.64417	-153.78178	578.95416	751.69659	-6.59352	575.61829	781.54211	
4381	43.800	-148.04237	22.94065	-80.91111	331.37088	26.14702	18.92234	-263.53055	10.48370	496.20462	207.03725	5.43005	595.54907	21.61587	721.35339	-768.10052	19.26176	530.06842	-115.06350	168.43077	533.09100	-86.40335	-152.27452	577.64337	751.16113	-5.00891	574.15192	781.99609	
4382	43.810	-146.94762	23.16915	-80.58254	332.47983	26.27043	19.38329	-261.69620	8.89248	496.74957	208.26724	4.25889	596.11810	22.32427	721.10870	-767.97205	20.40933	530.25757	-114.76306	169.75305	532.71698	-85.77567	-151.56894	576.24579	751.57532	-4.32171	572.77887	782.53351	
4383	43.820	-146.31387	23.34843	-80.18568	333.06421	26.25311	19.62511	-261.85886	8.19732	496.60068	208.87468	3.22133	596.55591	22.79282	720.98102	-767.91217	22.00478	530.73840	-114.41870	171.72063	532.94159	-85.10114	-150.11810	574.91858	751.97437	-2.81190	571.28571	783.05145	
4384	43.830	-145.44298	23.74718	-79.69763	332.65671	25.26038	19.50373	-260.92096	7.15292	496.97574	209.63698	1.58109	596.56244	23.43826	720.66382	-767.22894	23.49722	531.07831	-113.89618	173.10295	533.15900	-84.72026	-148.79454	573.80634	752.56757	-1.96103	569.88361	783.34631	
4385	43.840	-144.43031	23.91145	-79.47717	333.50925	25.31118	19.93730	-259.14157	5.53912	497.75864	211.00237	0.55756	596.95453	23.93292	720.46948	-766.72137	24.57462	531.44330	-113.62884	174.19865	533.55109	-84.50011	-147.44775	572.23383	753.01129	-0.09070	568.03265	784.40442	
4386	43.850	-143.80324	24.22810	-79.19076	335.37103	26.82155	21.04380	-258.86606	4.93815	497.85458	211.39571	-0.78801	597.29785	24.23587	720.33942	-766.62152	26.11632	531.81201	-113.08006	175.62177	533.75256	-84.07624	-145.81456	570.97137	753.44159	1.10861	567.22931	784.43042	
4387	43.860	-143.08334	24.58709	-78.76508	336.18713	26.59707	21.39816	-258.16751	4.25097	497.69229	212.31055	-2.19169	597.42944	24.33798	720.30475	-766.51776	27.17385	531.89893	-112.55191	176.63876	533.97955	-83.75851	-144.74522	569.94489	754.17816	2.23721	565.70917	784.89880	
4388	43.870	-142.06161	24.77493	-78.38495	337.25537	26.33052	21.53690	-256.45990	2.59836	498.68973	213.14731	-3.35622	597.82416	24.54052	719.94672	-766.23206	28.59464	532.02954	-112.00242	177.49698	534.07111	-83.46118	-143.26413	568.70752	754.27148	4.02672	564.36523	785.62671	
4389	43.880	-141.58760	24.97202	-78.08749	337.87567	26.33533	21.69196	-256.29550	2.12383	498.86209	213.77299	-4.65049	598.13147	24.85916	719.45966	-765.74139	29.59074	532.54041	-111.94252	179.24492	534.27869	-82.90688	-141.31502	567.24237	755.07635	5.84678	563.05859	785.97131	
